<svg xmlns="http://www.w3.org/2000/svg" width="408" height="406" viewBox="0 0 408 406"><g fill="none" fill-rule="evenodd"><rect width="398" height="398" x="5" y="4" fill="#FF5A00" rx="14"/><g transform="translate(34 33)"><rect width="340" height="340"/><g fill="#FFF" transform="translate(105.358 114.838)"><path d="M188.742201,19.1844222 C188.742201,29.7796861 180.153042,38.3688445 169.557779,38.3688445 C164.469753,38.3688445 159.590121,36.3476344 155.992344,32.7498573 C152.394566,29.1520802 150.373356,24.2724474 150.373356,19.1844222 C150.373356,14.0963971 152.394566,9.21676425 155.992344,5.61898718 C159.590121,2.02121011 164.469753,0 169.557779,0 C180.153042,0 188.742201,8.58915841 188.742201,19.1844222 Z" transform="matrix(-1 0 0 1 339.116 0)"/><path d="M169.863376,152.569681 L109.922346,167.307929 L85.7153916,121.775801 L41.5006483,108.437275 L30.3028734,53.6011126 L66.8603148,31.8642555 L69.3304122,47.5082057 L73.9412607,46.4378301 L109.263653,13.5031982 C109.922346,12.8445056 109.593,11.6917935 108.687297,11.5271203 L68.0953635,5.26954028 L62.9904956,6.50458897 L65.7899393,24.5362999 L7.3309677,45.5321278 C1.15572423,47.7552154 -1.72605606,54.8361613 1.07338765,60.6820584 L31.2909124,123.916552 L77.399397,136.596385 L100.618313,169.44868 L66.7779783,177.764675 C65.0489101,178.176358 65.0489101,180.646455 66.7779783,181.140475 C86.621094,186.163006 129.600789,182.622533 146.562124,176.529626 C160.229996,171.671768 168.298981,160.638666 171.674781,155.039779 C172.498147,153.80473 171.345434,152.157998 169.863376,152.569681 Z M69.1657391,13.2561885 C70.5654609,12.3504861 72.9532217,11.197774 76.823041,11.1154374 C83.3276308,10.8684277 101.194669,12.185813 100.535976,14.4089006 C99.9596199,16.2203054 79.8694944,34.9930456 73.1178949,41.168289 L69.1657391,13.2561885 Z" transform="matrix(-1 0 0 1 171.95 0)"/></g><g fill="#FFF" transform="translate(120.962 248.977)"><path d="M48.2492323,30.064159 C75.2556286,39.6152016 88.0177975,59.1289696 137.337405,65.221876 C186.657013,71.3147825 202.383299,52.4597071 211.110976,36.815758 C211.110976,36.815758 196.043382,47.8488589 172.001103,49.2485807 C147.958823,50.6483025 125.233929,51.8833511 98.3098693,42.5793182 C71.303473,33.2752854 66.6926249,24.3829354 37.9571606,18.3723655 C9.22169628,12.3617956 0,41.0972599 0,41.0972599 C0,41.0972599 21.3251726,20.5131164 48.2492323,30.064159 Z" transform="matrix(-1 0 0 1 211.111 0)"/><path d="M177.353243,66.3745881 C177.353243,66.3745881 172.330712,65.9629052 161.379948,62.5047691 C150.429184,59.046633 131.574108,48.425215 118.811939,42.0029622 C106.04977,35.5807094 94.851996,35.9100557 94.851996,35.9100557 C94.851996,35.9100557 104.403039,38.5448261 114.283428,44.3907228 C124.163816,50.2366196 139.807766,60.3640182 154.463676,64.3161737 C169.119586,68.2683293 177.353243,66.3745881 177.353243,66.3745881 Z" transform="matrix(-1 0 0 1 272.205 0)"/><path d="M189.127183,29.7348127 C189.127183,29.7348127 158.250968,6.59823541 148.123569,2.31673357 C137.996171,-1.96476828 121.775866,0.999348386 121.775866,0.999348386 C121.775866,0.999348386 135.937757,2.39907014 146.065155,7.50393772 C156.192554,12.6088053 189.127183,29.7348127 189.127183,29.7348127 Z" transform="matrix(-1 0 0 1 310.903 0)"/></g><path fill="#FFF" d="M215.595425,318.492038 C121.785414,353.099042 35.4254035,334.73804 35.4623698,334.72304 C37.0234037,334.10604 69.0174075,194.274023 173.49442,0.397 C173.49442,0.397 250.132429,116.065014 215.595425,318.492038" transform="matrix(-1 0 0 1 260 0)"/></g></g></svg>